<mxfile host="Electron" modified="2023-07-29T20:45:07.057Z" agent="Mozilla/5.0 (Windows NT 10.0; Win64; x64) AppleWebKit/537.36 (KHTML, like Gecko) draw.io/21.3.7 Chrome/112.0.5615.204 Electron/24.5.0 Safari/537.36" etag="ZN5YQWeRDpO9VsEEhCv1" version="21.3.7" type="device">
  <diagram name="Page-1" id="ZP8fSw-RxSqHPxX167EP">
    <mxGraphModel dx="915" dy="823" grid="1" gridSize="10" guides="1" tooltips="1" connect="1" arrows="1" fold="1" page="1" pageScale="1" pageWidth="850" pageHeight="1100" math="0" shadow="0">
      <root>
        <mxCell id="0" />
        <mxCell id="1" parent="0" />
        <mxCell id="mWlrLY9ctbNUtn-wAn9_-1" value="Overview SRPG Manager." style="text;html=1;strokeColor=none;fillColor=none;align=center;verticalAlign=middle;whiteSpace=wrap;rounded=0;" vertex="1" parent="1">
          <mxGeometry x="20" y="10" width="320" height="30" as="geometry" />
        </mxCell>
        <mxCell id="mWlrLY9ctbNUtn-wAn9_-2" value="Client Local (GUI MVC QT6 C++)&amp;nbsp;" style="rounded=0;whiteSpace=wrap;html=1;" vertex="1" parent="1">
          <mxGeometry x="20" y="50" width="320" height="180" as="geometry" />
        </mxCell>
        <mxCell id="mWlrLY9ctbNUtn-wAn9_-5" value="Capacite de connection au serveur" style="rounded=0;whiteSpace=wrap;html=1;" vertex="1" parent="1">
          <mxGeometry x="210" y="60" width="120" height="60" as="geometry" />
        </mxCell>
        <mxCell id="mWlrLY9ctbNUtn-wAn9_-6" value="Affiche l&#39;ensemble de la DB par le GUI." style="rounded=0;whiteSpace=wrap;html=1;" vertex="1" parent="1">
          <mxGeometry x="30" y="60" width="120" height="60" as="geometry" />
        </mxCell>
        <mxCell id="mWlrLY9ctbNUtn-wAn9_-7" value="Peut envoyer des demandes de modification au serveur" style="rounded=0;whiteSpace=wrap;html=1;" vertex="1" parent="1">
          <mxGeometry x="30" y="160" width="120" height="60" as="geometry" />
        </mxCell>
        <mxCell id="mWlrLY9ctbNUtn-wAn9_-9" value="Serveur&lt;br&gt;C++ ?" style="rounded=0;whiteSpace=wrap;html=1;" vertex="1" parent="1">
          <mxGeometry x="390" y="50" width="320" height="180" as="geometry" />
        </mxCell>
        <mxCell id="mWlrLY9ctbNUtn-wAn9_-12" value="Capacite de connection a la DB" style="rounded=0;whiteSpace=wrap;html=1;" vertex="1" parent="1">
          <mxGeometry x="580" y="60" width="120" height="60" as="geometry" />
        </mxCell>
        <mxCell id="mWlrLY9ctbNUtn-wAn9_-13" value="Calcul l&#39;ensemble des evenements&lt;br&gt;- Possibilite&lt;br&gt;-Outcome&lt;br&gt;-Mechanique de jeux&lt;br&gt;&lt;br&gt;et les enregistre dans la DB au besoin.&lt;br&gt;&lt;br&gt;Peut retourner des erreurs du serveur et/ou db" style="rounded=0;whiteSpace=wrap;html=1;" vertex="1" parent="1">
          <mxGeometry x="400" y="55" width="120" height="170" as="geometry" />
        </mxCell>
        <mxCell id="mWlrLY9ctbNUtn-wAn9_-15" value="Sous demande des joeurs, et avec permission acquise, peut renvoyer des informations de la DB au joueur." style="rounded=0;whiteSpace=wrap;html=1;" vertex="1" parent="1">
          <mxGeometry x="585" y="120" width="110" height="100" as="geometry" />
        </mxCell>
        <mxCell id="mWlrLY9ctbNUtn-wAn9_-16" value="BD (PGSQL)" style="rounded=0;whiteSpace=wrap;html=1;" vertex="1" parent="1">
          <mxGeometry x="20" y="260" width="290" height="180" as="geometry" />
        </mxCell>
        <mxCell id="mWlrLY9ctbNUtn-wAn9_-17" value="Store uniquement les informations. Ne performe pas de calcul." style="rounded=0;whiteSpace=wrap;html=1;" vertex="1" parent="1">
          <mxGeometry x="30" y="270" width="120" height="60" as="geometry" />
        </mxCell>
        <mxCell id="mWlrLY9ctbNUtn-wAn9_-19" value="Store uniquement les informations. Ne performe pas de calcul." style="rounded=0;whiteSpace=wrap;html=1;" vertex="1" parent="1">
          <mxGeometry x="170" y="270" width="120" height="60" as="geometry" />
        </mxCell>
        <mxCell id="mWlrLY9ctbNUtn-wAn9_-20" value="Search and filter" style="rounded=0;whiteSpace=wrap;html=1;" vertex="1" parent="1">
          <mxGeometry x="30" y="370" width="120" height="60" as="geometry" />
        </mxCell>
      </root>
    </mxGraphModel>
  </diagram>
</mxfile>
